<?xml version="1.0" standalone="no"?>
<!DOCTYPE svg PUBLIC "-//W3C//DTD SVG 20010904//EN"
 "http://www.w3.org/TR/2001/REC-SVG-20010904/DTD/svg10.dtd">
<svg version="1.0" xmlns="http://www.w3.org/2000/svg"
 width="438.000000pt" height="410.000000pt" viewBox="0 0 438.000000 410.000000"
 preserveAspectRatio="xMidYMid meet">

<g transform="translate(0.000000,410.000000) scale(0.100000,-0.100000)"
fill="#000000" stroke="none">
<path d="M0 2050 l0 -2050 2190 0 2190 0 0 2050 0 2050 -2190 0 -2190 0 0
-2050z m1752 1188 c50 -14 102 -36 123 -53 109 -83 163 -280 152 -552 -3 -73
-4 -133 -2 -133 2 0 15 4 29 10 71 26 199 29 272 6 18 -5 19 4 20 167 1 258
38 392 134 481 48 45 91 62 210 85 202 38 467 13 712 -69 434 -145 818 -487
903 -805 23 -86 30 -234 16 -355 -41 -352 -207 -673 -439 -847 -106 -80 -185
-108 -307 -108 -80 0 -97 4 -158 33 -38 17 -83 44 -100 58 -46 38 -187 194
-271 298 l-71 89 -6 -84 c-11 -143 -78 -292 -167 -370 -20 -18 -60 -43 -90
-57 -105 -48 -235 -14 -275 71 -23 47 -21 141 3 247 25 110 25 180 -1 317
l-22 112 -81 -30 c-44 -17 -97 -36 -116 -44 -30 -11 -40 -11 -70 2 -19 9 -69
28 -110 43 l-75 28 -12 -67 c-36 -204 -37 -229 -13 -346 39 -189 29 -264 -43
-319 -40 -30 -116 -49 -165 -40 -169 31 -310 242 -315 471 -1 46 -4 83 -7 83
-3 -1 -34 -37 -70 -82 -106 -133 -280 -316 -329 -347 -138 -87 -333 -83 -476
11 -75 48 -216 193 -270 276 -141 219 -217 478 -219 742 -1 204 38 322 156
483 225 304 603 529 1008 601 125 23 151 24 310 21 115 -3 163 -8 232 -27z"/>
<path d="M3266 2968 c-2 -7 -10 -67 -16 -133 -7 -66 -14 -124 -17 -128 -2 -4
-13 -5 -23 -2 -10 3 -21 2 -23 -3 -9 -14 8 -31 32 -34 30 -4 36 16 46 141 4
50 12 91 17 91 6 0 19 -11 30 -25 11 -14 29 -30 41 -36 21 -10 21 -10 -1 8
-32 26 -62 74 -62 100 0 25 -18 41 -24 21z"/>
<path d="M3145 2880 c-16 -17 -63 -49 -105 -72 -180 -99 -296 -200 -391 -341
-60 -90 -65 -102 -50 -125 5 -9 19 6 45 51 49 83 167 218 250 285 36 29 107
75 158 101 66 34 98 57 111 79 27 46 17 58 -18 22z"/>
<path d="M2793 2755 c-10 -27 6 -30 30 -7 l21 22 -22 0 c-12 0 -25 -7 -29 -15z"/>
<path d="M888 2741 c-46 -15 -88 -51 -134 -114 -25 -33 -43 -62 -41 -64 2 -2
33 4 68 14 41 10 105 17 179 17 98 1 122 -2 162 -21 73 -33 76 -48 34 -186
-35 -114 -76 -296 -76 -335 0 -29 -30 -50 -100 -68 -113 -29 -284 -3 -412 62
-43 22 -48 23 -48 7 0 -30 57 -119 97 -152 20 -17 57 -38 82 -47 70 -24 251
-29 426 -10 83 9 206 21 275 28 l124 11 61 49 c62 51 88 101 58 112 -23 9
-128 7 -271 -6 -100 -9 -135 -9 -144 0 -24 24 106 406 142 417 28 9 148 -67
256 -163 52 -45 94 -78 94 -73 0 5 19 37 41 71 l42 62 -99 100 c-218 220 -364
286 -644 294 -80 2 -157 0 -172 -5z"/>
<path d="M3345 2740 c-8 -13 5 -13 25 0 13 8 13 10 -2 10 -9 0 -20 -4 -23 -10z"/>
<path d="M3420 2575 c-242 -44 -454 -146 -660 -315 -36 -29 -66 -55 -68 -56
-2 -1 2 -12 8 -24 11 -21 12 -21 53 17 114 104 300 223 424 269 152 57 399 93
520 76 68 -9 72 -2 13 28 -47 24 -172 26 -290 5z"/>
<path d="M2090 2394 c-30 -8 -59 -19 -64 -24 -13 -13 21 -220 48 -296 13 -35
43 -95 67 -135 24 -39 50 -81 56 -93 7 -11 13 -40 13 -63 l0 -42 38 16 c20 9
66 26 102 38 63 22 65 24 99 89 24 46 55 84 98 122 57 50 61 57 51 79 -11 24
-11 23 -90 -48 -43 -39 -86 -75 -94 -80 -24 -14 -16 10 21 58 77 102 122 205
88 205 -4 0 -25 -33 -46 -73 -20 -40 -57 -96 -81 -125 -76 -89 -175 -166 -192
-149 -3 3 12 36 35 74 54 91 77 162 98 300 20 133 20 133 -69 152 -65 14 -111
13 -178 -5z"/>
<path d="M3210 2375 c-22 -27 -5 -45 37 -38 46 7 56 14 47 36 -8 22 -67 23
-84 2z"/>
<path d="M3408 2298 c9 -9 15 -9 24 0 9 9 7 12 -12 12 -19 0 -21 -3 -12 -12z"/>
<path d="M3035 2213 c-4 -21 -8 -42 -10 -48 -1 -5 -42 -22 -91 -37 -131 -39
-184 -65 -184 -88 0 -11 3 -20 7 -20 4 0 44 16 89 35 44 19 101 38 126 41 l44
6 -5 -48 c-6 -44 -9 -48 -39 -56 -44 -12 -40 -41 6 -45 38 -3 45 9 57 97 4 30
13 58 19 62 13 9 78 10 100 2 17 -7 20 -53 8 -134 -7 -42 -9 -45 -35 -42 -21
3 -27 -1 -27 -17 0 -34 61 -39 74 -5 3 8 9 51 12 95 5 57 11 82 21 86 8 3 70
-12 136 -33 l122 -39 172 0 172 0 30 29 c30 29 36 51 7 27 -24 -20 -117 -41
-183 -41 -79 0 -231 29 -363 70 l-102 31 4 52 3 52 -82 3 -82 3 -6 -38z m147
-23 c-2 -19 -5 -36 -6 -38 -2 -1 -30 1 -64 4 -50 6 -62 10 -62 25 0 44 10 50
74 47 l61 -3 -3 -35z"/>
<path d="M1850 2193 c-17 -26 -30 -51 -30 -56 0 -23 31 -56 148 -152 70 -58
140 -122 156 -143 l29 -37 -7 30 c-6 26 -251 405 -262 405 -2 0 -18 -21 -34
-47z"/>
<path d="M3288 2233 c-19 -5 -24 -18 -9 -27 14 -9 41 4 41 20 0 14 -3 15 -32
7z"/>
<path d="M1780 2010 c0 -6 14 -13 32 -17 37 -7 113 -79 132 -124 10 -24 28
-38 73 -58 32 -14 72 -34 87 -44 27 -18 27 -18 17 1 -11 20 -115 115 -203 185
-65 52 -138 82 -138 57z"/>
<path d="M2872 1860 c7 -11 25 -24 40 -29 15 -6 80 -43 143 -85 64 -41 148
-88 188 -105 159 -66 339 -66 440 -2 17 11 49 29 69 39 21 10 35 22 31 25 -14
15 -54 5 -119 -30 -68 -37 -70 -38 -174 -37 -170 3 -269 36 -443 148 -139 89
-200 116 -175 76z"/>
<path d="M3660 1745 c-10 -12 -10 -15 3 -15 19 0 31 16 18 24 -5 3 -14 -1 -21
-9z"/>
<path d="M3850 1650 c-8 -5 -11 -12 -7 -16 4 -4 15 0 24 9 18 18 8 23 -17 7z"/>
</g>
</svg>
